<svg xmlns="http://www.w3.org/2000/svg" viewBox="0 0 64 64"><defs><style>.cls-1{fill:#cdd2e1;}.cls-2{fill:#f6fafd;}.cls-3{fill:#ffca6b;}.cls-4{fill:#96796d;}.cls-5{fill:#c4998d;}.cls-6{fill:#e3b1a1;}.cls-7{fill:#af8a82;}.cls-8{fill:#776058;}.cls-9{fill:#393045;}</style></defs><title>06-briefcase</title><g id="_06-briefcase" data-name="06-briefcase"><path class="cls-1" d="M33,3v8H25Z"/><polygon class="cls-2" points="63 3 63 51 25 51 25 11 33 11 33 3 63 3"/><path class="cls-3" d="M56,20v4H52.77a8.764,8.764,0,0,1-1.16,2.78l2.29,2.29L51.07,31.9l-2.29-2.29A8.764,8.764,0,0,1,46,30.77V34H42V30.77a8.764,8.764,0,0,1-2.78-1.16L36.93,31.9,34.1,29.07l2.29-2.29A8.764,8.764,0,0,1,35.23,24H32V20h3.23a8.764,8.764,0,0,1,1.16-2.78L34.1,14.93l2.83-2.83,2.29,2.29A8.764,8.764,0,0,1,42,13.23V10h4v3.23a8.764,8.764,0,0,1,2.78,1.16l2.29-2.29,2.83,2.83-2.29,2.29A8.764,8.764,0,0,1,52.77,20Zm-7,2a5,5,0,1,0-5,5A5,5,0,0,0,49,22Z"/><polygon class="cls-4" points="32 25 14 25 14 23 14 21 25 21 32 21 32 23 32 25"/><polygon class="cls-3" points="39 47 39 50 37 50 31 50 29 50 29 44 31 44 37 44 39 44 39 47"/><polygon class="cls-3" points="15 50 9 50 7 50 7 44 9 44 15 44 17 44 17 47 17 50 15 50"/><polygon class="cls-5" points="15 50 15 53 12 56 9 53 9 50 15 50"/><rect class="cls-5" x="9" y="40" width="6" height="4"/><polygon class="cls-5" points="37 50 37 53 34 56 31 53 31 50 37 50"/><rect class="cls-5" x="31" y="40" width="6" height="4"/><path class="cls-5" d="M41,29v5l-2,2H7L5,34V29H41Z"/><path class="cls-6" d="M5,29v5l2,2H39l2-2V29a4,4,0,0,1,4,4v7H1V33A4,4,0,0,1,5,29Z"/><path class="cls-4" d="M15,50h2V44H15V40H31v4H29v6h2v3l3,3,3-3V50h2V44H37V40h8V57a4,4,0,0,1-4,4H5a4,4,0,0,1-4-4V40H9v4H7v6H9v3l3,3,3-3Z"/><path class="cls-7" d="M5,34V29a4,4,0,0,0-4,4v7H5Z"/><path class="cls-8" d="M5,55V40H1V57a4,4,0,0,0,4,4H41a4,4,0,0,0,4-4H7A2,2,0,0,1,5,55Z"/><path class="cls-9" d="M41,28H36V25a3,3,0,0,0-3-3V21a1,1,0,0,0-1-1H14a1,1,0,0,0-1,1v1a3,3,0,0,0-3,3v3H5a5.006,5.006,0,0,0-5,5V57a5.006,5.006,0,0,0,5,5H41a5.006,5.006,0,0,0,5-5V33A5.006,5.006,0,0,0,41,28ZM6,30H40v3.586L38.586,35H7.414L6,33.586Zm9-8H31v2H15Zm-3,3a1,1,0,0,1,1-1v1a1,1,0,0,0,1,1H32a1,1,0,0,0,1-1V24a1,1,0,0,1,1,1v3H12ZM4,30.184V34a1,1,0,0,0,.293.707l2,2A1,1,0,0,0,7,37H39a1,1,0,0,0,.707-.293l2-2A1,1,0,0,0,42,34V30.184A3,3,0,0,1,44,33v6H2V33A3,3,0,0,1,4,30.184ZM38,48v1H30V45h8v1H32v2Zm-6,3h4v1.586l-2,2-2-2Zm0-8V41h4v2ZM16,48v1H8V45h8v1H10v2Zm-6,3h4v1.586l-2,2-2-2Zm0-8V41h4v2ZM41,60H5a3,3,0,0,1-3-3V41H8v2H7a1,1,0,0,0-1,1v6a1,1,0,0,0,1,1H8v2a1,1,0,0,0,.293.707l3,3a1,1,0,0,0,1.414,0l3-3A1,1,0,0,0,16,53V51h1a1,1,0,0,0,1-1V44a1,1,0,0,0-1-1H16V41H30v2H29a1,1,0,0,0-1,1v6a1,1,0,0,0,1,1h1v2a1,1,0,0,0,.293.707l3,3a1,1,0,0,0,1.414,0l3-3A1,1,0,0,0,38,53V51h1a1,1,0,0,0,1-1V44a1,1,0,0,0-1-1H38V41h6V57A3,3,0,0,1,41,60Z"/><path class="cls-9" d="M63,2H33a1,1,0,0,0-.707.293l-8,8A1,1,0,0,0,24,11v7h2V12h7a1,1,0,0,0,1-1V4H62V50H48v2H63a1,1,0,0,0,1-1V3A1,1,0,0,0,63,2ZM27.414,10,32,5.414V10Z"/><path class="cls-9" d="M46,9H42a1,1,0,0,0-1,1v2.466a9.751,9.751,0,0,0-1.617.673l-1.746-1.746a1,1,0,0,0-1.414,0l-2.83,2.83a1,1,0,0,0,0,1.414l1.746,1.746a9.838,9.838,0,0,0-.884,2.393l1.95.448a7.731,7.731,0,0,1,1.026-2.463,1,1,0,0,0-.134-1.248L35.514,14.93l1.416-1.416L38.513,15.1a1,1,0,0,0,1.248.134,7.731,7.731,0,0,1,2.463-1.026A1,1,0,0,0,43,13.23V11h2v2.23a1,1,0,0,0,.776.975,7.731,7.731,0,0,1,2.463,1.026,1,1,0,0,0,1.248-.134l1.583-1.583,1.416,1.416L50.9,16.513a1,1,0,0,0-.134,1.248A7.731,7.731,0,0,1,51.8,20.224,1,1,0,0,0,52.77,21H55v2H52.77a1,1,0,0,0-.975.776,7.731,7.731,0,0,1-1.026,2.463,1,1,0,0,0,.134,1.248l1.583,1.583L51.07,30.486,49.487,28.9l-1.414,1.414,2.29,2.29a1,1,0,0,0,1.414,0l2.83-2.83a1,1,0,0,0,0-1.414l-1.746-1.746A9.751,9.751,0,0,0,53.534,25H56a1,1,0,0,0,1-1V20a1,1,0,0,0-1-1H53.534a9.751,9.751,0,0,0-.673-1.617l1.746-1.746a1,1,0,0,0,0-1.414l-2.83-2.83a1,1,0,0,0-1.414,0l-1.746,1.746A9.751,9.751,0,0,0,47,12.466V10A1,1,0,0,0,46,9Z"/><path class="cls-9" d="M50,22a6,6,0,1,0-6,6A6.006,6.006,0,0,0,50,22Zm-6,4a4,4,0,1,1,4-4A4,4,0,0,1,44,26Z"/><rect class="cls-9" x="48" y="36" width="11" height="2"/><rect class="cls-9" x="48" y="40" width="11" height="2"/><rect class="cls-9" x="48" y="44" width="11" height="2"/></g></svg>