<?xml version="1.0" encoding="iso-8859-1"?>
<!-- Generator: Adobe Illustrator 21.0.2, SVG Export Plug-In . SVG Version: 6.00 Build 0)  -->
<svg version="1.1" xmlns="http://www.w3.org/2000/svg" xmlns:xlink="http://www.w3.org/1999/xlink" x="0px" y="0px"
	 viewBox="0 0 64 64" style="enable-background:new 0 0 64 64;" xml:space="preserve">
<g id="css">
</g>
<g id="mobile_development">
</g>
<g id="code">
</g>
<g id="hardware_programming">
</g>
<g id="python">
</g>
<g id="development">
</g>
<g id="update">
</g>
<g id="maintenance">
</g>
<g id="peformance_testing">
</g>
<g id="programming">
</g>
<g id="hacker">
</g>
<g id="web_programming">
</g>
<g id="html">
</g>
<g id="typing">
</g>
<g id="search_1_">
</g>
<g id="android">
</g>
<g id="coding">
</g>
<g id="file">
</g>
<g id="api">
</g>
<g id="java">
</g>
<g id="xml">
</g>
<g id="security">
</g>
<g id="algorithm">
</g>
<g id="php">
</g>
<g id="eror">
</g>
<g id="bug">
</g>
<g id="c_x2B__x2B_">
</g>
<g id="search">
</g>
<g id="binary">
</g>
<g id="database_sql">
	<g>
		<path d="M5.7471,8.5366h8.1279c0.5522,0,1-0.4478,1-1s-0.4478-1-1-1H5.7471c-0.5522,0-1,0.4478-1,1S5.1948,8.5366,5.7471,8.5366z"
			/>
		<path d="M19.8984,8.0498c0.1831,0.3208,0.5151,0.4976,0.8579,0.4976c0.1699,0,0.3428-0.0435,0.5015-0.1338
			c0.4795-0.2744,0.6411-0.8936,0.3672-1.373c-0.2729-0.4795-0.8843-0.6455-1.3643-0.3721
			c-0.4795,0.2739-0.646,0.8848-0.3721,1.3643L19.8984,8.0498z"/>
		<path d="M62,2.772H39.5303c-0.5522,0-1,0.4478-1,1v10.9097h-4.2627c-0.5522,0-1,0.4478-1,1v32.8765h-2.3018V15.6816
			c0-0.5522-0.4478-1-1-1h-4.4961V3.772c0-0.5522-0.4478-1-1-1H2c-0.5522,0-1,0.4478-1,1v22.5869c0,0.5522,0.4478,1,1,1h22.4697
			c0.5522,0,1-0.4478,1-1v-9.6772h3.4961v32.8765c0,0.5522,0.4478,1,1,1h3.3018v4.2832h-7.7979V37.6421c0-0.5522-0.4478-1-1-1H2
			c-0.5522,0-1,0.4478-1,1V60.228c0,0.5522,0.4478,1,1,1h22.4697c0.5522,0,1-0.4478,1-1v-3.3867h8.7979c0.5522,0,1-0.4478,1-1
			v-5.2832h3.2627v9.6699c0,0.5522,0.4478,1,1,1H62c0.5522,0,1-0.4478,1-1V37.6421c0-0.5522-0.4478-1-1-1H39.5303
			c-0.5522,0-1,0.4478-1,1v10.916h-3.2627V16.6816h3.2627v9.6772c0,0.5522,0.4478,1,1,1H62c0.5522,0,1-0.4478,1-1V3.772
			C63,3.2197,62.5522,2.772,62,2.772z M23.4697,4.772v5.5288H3V4.772H23.4697z M23.4697,25.3589H3V12.3008h20.4697V25.3589z
			 M23.4697,38.6421v5.5283H3v-5.5283H23.4697z M23.4697,59.228H3V46.1704h20.4697V59.228z M40.5303,59.228V46.1704H61V59.228
			H40.5303z M61,38.6421v5.5283H40.5303v-5.5283H61z M61,4.772v5.5288H40.5303V4.772H61z M40.5303,25.3589V12.3008H61v13.0581
			H40.5303z"/>
		<path d="M43.2773,8.5366h8.1279c0.5522,0,1-0.4478,1-1s-0.4478-1-1-1h-8.1279c-0.5522,0-1,0.4478-1,1
			S42.7251,8.5366,43.2773,8.5366z"/>
		<path d="M57.4287,8.0498c0.1831,0.3208,0.5151,0.4976,0.8579,0.4976c0.1699,0,0.3428-0.0435,0.5015-0.1338
			c0.4795-0.2744,0.6411-0.8936,0.3672-1.373C58.8823,6.561,58.2705,6.395,57.791,6.6685c-0.4795,0.2739-0.646,0.8848-0.3721,1.3643
			L57.4287,8.0498z"/>
		<path d="M5.7471,42.4058h8.1279c0.5522,0,1-0.4478,1-1s-0.4478-1-1-1H5.7471c-0.5522,0-1,0.4478-1,1
			S5.1948,42.4058,5.7471,42.4058z"/>
		<path d="M19.8926,41.9092c0.1812,0.3267,0.5166,0.5078,0.8638,0.5078c0.166,0,0.335-0.0415,0.4912-0.1284
			c0.4824-0.2681,0.6519-0.8857,0.3833-1.3687c-0.2681-0.4819-0.8765-0.6567-1.3599-0.3882
			c-0.4824,0.2681-0.6567,0.877-0.3882,1.3599L19.8926,41.9092z"/>
		<path d="M43.2773,42.4058h8.1279c0.5522,0,1-0.4478,1-1s-0.4478-1-1-1h-8.1279c-0.5522,0-1,0.4478-1,1
			S42.7251,42.4058,43.2773,42.4058z"/>
		<path d="M57.4229,41.9092c0.1812,0.3267,0.5166,0.5078,0.8638,0.5078c0.166,0,0.335-0.0415,0.4912-0.1284
			c0.4824-0.2681,0.6519-0.8857,0.3833-1.3687c-0.2676-0.4819-0.8765-0.6567-1.3599-0.3882
			c-0.4824,0.2681-0.6567,0.877-0.3882,1.3599L57.4229,41.9092z"/>
		<path d="M57.8213,14.6816H43.7227c-0.5522,0-1,0.4478-1,1s0.4478,1,1,1h14.0986c0.5522,0,1-0.4478,1-1
			S58.3735,14.6816,57.8213,14.6816z"/>
		<path d="M57.8213,20.9648H43.7227c-0.5522,0-1,0.4478-1,1s0.4478,1,1,1h14.0986c0.5522,0,1-0.4478,1-1
			S58.3735,20.9648,57.8213,20.9648z"/>
		<path d="M20.3838,14.6816H6.2881c-0.5522,0-1,0.4478-1,1s0.4478,1,1,1h14.0957c0.5522,0,1-0.4478,1-1
			S20.936,14.6816,20.3838,14.6816z"/>
		<path d="M20.3838,20.9648H6.2881c-0.5522,0-1,0.4478-1,1s0.4478,1,1,1h14.0957c0.5522,0,1-0.4478,1-1
			S20.936,20.9648,20.3838,20.9648z"/>
		<path d="M57.8145,48.5581H43.7158c-0.5522,0-1,0.4478-1,1s0.4478,1,1,1h14.0986c0.5522,0,1-0.4478,1-1
			S58.3667,48.5581,57.8145,48.5581z"/>
		<path d="M57.8145,54.8413H43.7158c-0.5522,0-1,0.4478-1,1s0.4478,1,1,1h14.0986c0.5522,0,1-0.4478,1-1
			S58.3667,54.8413,57.8145,54.8413z"/>
		<path d="M20.2881,48.561H6.1924c-0.5522,0-1,0.4478-1,1s0.4478,1,1,1h14.0957c0.5522,0,1-0.4478,1-1
			S20.8403,48.561,20.2881,48.561z"/>
		<path d="M20.2881,54.8413H6.1924c-0.5522,0-1,0.4478-1,1s0.4478,1,1,1h14.0957c0.5522,0,1-0.4478,1-1
			S20.8403,54.8413,20.2881,54.8413z"/>
	</g>
</g>
</svg>
