<?xml version="1.0" encoding="iso-8859-1"?>
<!-- Generator: Adobe Illustrator 19.0.0, SVG Export Plug-In . SVG Version: 6.00 Build 0)  -->
<svg version="1.1" id="Layer_1" xmlns="http://www.w3.org/2000/svg" xmlns:xlink="http://www.w3.org/1999/xlink" x="0px" y="0px"
	 viewBox="0 0 512 512" style="enable-background:new 0 0 512 512;" xml:space="preserve">
<path style="fill:#E0E0E2;" d="M470.939,408.417H41.061c-18.402,0-33.457-15.056-33.457-33.457V117.439
	c0-18.402,15.056-33.457,33.457-33.457h429.877c18.402,0,33.457,15.056,33.457,33.457V374.96
	C504.396,393.361,489.34,408.417,470.939,408.417z"/>
<g>
	<path style="fill:#C6C5CA;" d="M470.939,390.675h-25.347c-4.2,0-7.604-3.405-7.604-7.604c0-4.199,3.404-7.604,7.604-7.604h25.347
		c0.199,0,0.507-0.308,0.507-0.507v-27.374c0-4.199,3.404-7.604,7.604-7.604c4.2,0,7.604,3.405,7.604,7.604v27.374
		C486.653,383.625,479.604,390.675,470.939,390.675z"/>
	<path style="fill:#C6C5CA;" d="M67.083,374.96V117.439c0-18.402,15.056-33.457,33.457-33.457H41.061
		c-18.402,0-33.457,15.056-33.457,33.457V374.96c0,18.402,15.056,33.457,33.457,33.457h59.479
		C82.14,408.417,67.083,393.361,67.083,374.96z"/>
</g>
<path style="fill:#FFFFFF;" d="M458.262,317.17H53.732c-8.364,0-15.208-6.844-15.208-15.208V130.878
	c0-8.364,6.844-15.208,15.208-15.208h404.531c8.364,0,15.208,6.844,15.208,15.208v171.084
	C473.47,310.326,466.627,317.17,458.262,317.17z"/>
<path style="fill:#E0E0E2;" d="M95.25,301.962V130.878c0-8.364,6.844-15.208,15.208-15.208H53.732
	c-8.364,0-15.208,6.844-15.208,15.208v171.084c0,8.364,6.844,15.208,15.208,15.208h56.727
	C102.094,317.17,95.25,310.326,95.25,301.962z"/>
<rect x="38.524" y="197.531" style="fill:#FF3F62;" width="434.947" height="28.388"/>
<rect x="38.524" y="211.725" style="fill:#57565C;" width="434.947" height="14.194"/>
<path style="fill:#FF3F62;" d="M92.431,175.568H68.098c-2.788,0-5.069-2.281-5.069-5.069v-24.333c0-2.788,2.281-5.069,5.069-5.069
	h24.333c2.788,0,5.069,2.281,5.069,5.069v24.333C97.5,173.287,95.219,175.568,92.431,175.568z"/>
<g>
	<path style="fill:#57565C;" d="M107.976,267.115H64.043c-2.788,0-5.069-2.281-5.069-5.069v-16.861c0-2.788,2.281-5.069,5.069-5.069
		h43.934c2.788,0,5.069,2.281,5.069,5.069v16.861C113.046,264.834,110.764,267.115,107.976,267.115z"/>
	<path style="fill:#57565C;" d="M410.275,255.396h-6.758c-1.673,0-3.042-1.369-3.042-3.042v-7.438c0-1.673,1.369-3.042,3.042-3.042
		h6.759c1.673,0,3.042,1.369,3.042,3.042v7.438C413.317,254.028,411.948,255.396,410.275,255.396z"/>
	<path style="fill:#57565C;" d="M410.275,278.942h-6.758c-1.673,0-3.042-1.369-3.042-3.042v-7.438c0-1.673,1.369-3.042,3.042-3.042
		h6.759c1.673,0,3.042,1.369,3.042,3.042v7.438C413.317,277.573,411.948,278.942,410.275,278.942z"/>
</g>
<path style="fill:#E0E0E2;" d="M361.949,279.657H150.051c-8.364,0-15.208-6.844-15.208-15.208v-51.707
	c0-8.364,6.844-15.208,15.208-15.208h211.897c8.364,0,15.208,6.844,15.208,15.208v51.707
	C377.156,272.813,370.313,279.657,361.949,279.657z"/>
<circle style="fill:#57565C;" cx="183.337" cy="238.593" r="24.797"/>
<g>
	<path style="fill:#2D2D30;" d="M183.34,231.52c4.2,0,7.604-3.405,7.604-7.604v-8.925c-2.397-0.772-4.951-1.192-7.604-1.192
		c-2.653,0-5.207,0.421-7.604,1.192v8.925C175.736,228.115,179.139,231.52,183.34,231.52z"/>
	<path style="fill:#2D2D30;" d="M183.34,245.671c-4.2,0-7.604,3.405-7.604,7.604v8.925c2.397,0.772,4.951,1.192,7.604,1.192
		c2.653,0,5.207-0.421,7.604-1.192v-8.925C190.944,249.076,187.539,245.671,183.34,245.671z"/>
	<path style="fill:#2D2D30;" d="M176.265,238.596c0-4.199-3.405-7.604-7.604-7.604h-8.925c-0.772,2.397-1.192,4.951-1.192,7.604
		c0,2.653,0.421,5.207,1.192,7.604h8.925C172.86,246.199,176.265,242.795,176.265,238.596z"/>
	<path style="fill:#2D2D30;" d="M206.944,230.992h-8.925c-4.2,0-7.604,3.405-7.604,7.604c0,4.199,3.404,7.604,7.604,7.604h8.925
		c0.772-2.397,1.192-4.951,1.192-7.604C208.138,235.942,207.716,233.388,206.944,230.992z"/>
</g>
<circle style="fill:#57565C;" cx="328.663" cy="238.593" r="24.797"/>
<g>
	<path style="fill:#2D2D30;" d="M328.659,231.52c4.2,0,7.604-3.405,7.604-7.604v-8.925c-2.397-0.772-4.951-1.192-7.604-1.192
		c-2.653,0-5.207,0.421-7.604,1.192v8.925C321.055,228.115,324.46,231.52,328.659,231.52z"/>
	<path style="fill:#2D2D30;" d="M328.659,245.671c-4.2,0-7.604,3.405-7.604,7.604v8.925c2.397,0.772,4.951,1.192,7.604,1.192
		c2.653,0,5.207-0.421,7.604-1.192v-8.925C336.263,249.076,332.86,245.671,328.659,245.671z"/>
	<path style="fill:#2D2D30;" d="M321.585,238.596c0-4.199-3.404-7.604-7.604-7.604h-8.925c-0.772,2.397-1.192,4.951-1.192,7.604
		c0,2.653,0.421,5.207,1.192,7.604h8.925C318.18,246.199,321.585,242.795,321.585,238.596z"/>
	<path style="fill:#2D2D30;" d="M352.265,230.992h-8.925c-4.2,0-7.604,3.405-7.604,7.604c0,4.199,3.404,7.604,7.604,7.604h8.925
		c0.772-2.397,1.193-4.951,1.193-7.604C353.457,235.942,353.037,233.388,352.265,230.992z"/>
	<path style="fill:#2D2D30;" d="M282.36,251.776H229.64c-2.788,0-5.069-2.281-5.069-5.069v-16.222c0-2.788,2.281-5.069,5.069-5.069
		h52.721c2.788,0,5.069,2.281,5.069,5.069v16.222C287.43,249.495,285.149,251.776,282.36,251.776z"/>
</g>
<path style="fill:#C6C5CA;" d="M407.306,414.675l-22.305-66.915c-1.38-4.14-5.255-6.933-9.618-6.933H133.746
	c-4.365,0-8.239,2.792-9.617,6.933l-22.305,66.915c-1.031,3.091-0.513,6.49,1.393,9.134c1.906,2.643,4.966,4.211,8.224,4.211
	h286.247c3.26,0,6.318-1.566,8.224-4.211S408.336,417.766,407.306,414.675z"/>
<path style="fill:#ACABB1;" d="M152.514,423.809c-1.906-2.644-2.424-6.043-1.393-9.134l22.305-66.915
	c1.379-4.14,5.254-6.933,9.617-6.933h-47.862c-4.365,0-8.239,2.792-9.617,6.933l-22.305,66.915c-1.031,3.091-0.513,6.49,1.393,9.134
	c1.906,2.643,4.965,4.211,8.224,4.211h47.862C157.48,428.019,154.42,426.452,152.514,423.809z"/>
<g>
	<circle style="fill:#3E3D42;" cx="153.935" cy="395.994" r="14.448"/>
	<circle style="fill:#3E3D42;" cx="176.493" cy="366.511" r="8.111"/>
	<circle style="fill:#3E3D42;" cx="358.065" cy="395.994" r="14.448"/>
	<circle style="fill:#3E3D42;" cx="335.507" cy="366.511" r="8.111"/>
</g>
<path d="M30.92,130.878v171.084c0,12.579,10.234,22.812,22.812,22.812h404.531c12.578,0,22.812-10.233,22.812-22.812V130.878
	c0-12.579-10.234-22.812-22.812-22.812H53.732C41.154,108.066,30.92,118.299,30.92,130.878z M465.866,130.878v171.084
	c0,4.193-3.411,7.604-7.604,7.604H53.732c-4.193,0-7.604-3.411-7.604-7.604V130.878c0-4.193,3.411-7.604,7.604-7.604h404.531
	C462.456,123.274,465.866,126.685,465.866,130.878z"/>
<path d="M131.971,152.729h245.185c4.2,0,7.604-3.405,7.604-7.604c0-4.199-3.404-7.604-7.604-7.604H131.971
	c-4.2,0-7.604,3.405-7.604,7.604C124.367,149.324,127.771,152.729,131.971,152.729z"/>
<path d="M131.971,180.13h245.185c4.2,0,7.604-3.405,7.604-7.604s-3.404-7.604-7.604-7.604H131.971c-4.2,0-7.604,3.405-7.604,7.604
	C124.367,176.726,127.771,180.13,131.971,180.13z"/>
<path d="M361.949,189.93H150.051c-12.578,0-22.812,10.233-22.812,22.812v51.707c0,12.579,10.234,22.812,22.812,22.812h211.897
	c12.578,0,22.812-10.233,22.812-22.812v-51.707C384.76,200.164,374.526,189.93,361.949,189.93z M369.552,264.449
	c0,4.193-3.411,7.604-7.604,7.604H150.051c-4.193,0-7.604-3.411-7.604-7.604v-51.707c0-4.193,3.411-7.604,7.604-7.604h211.897
	c4.193,0,7.604,3.411,7.604,7.604V264.449z"/>
<path d="M68.098,183.172h24.333c6.989,0,12.673-5.685,12.673-12.673v-24.333c0-6.989-5.685-12.673-12.673-12.673H68.098
	c-6.989,0-12.673,5.685-12.673,12.673v24.333C55.425,177.486,61.109,183.172,68.098,183.172z M70.633,148.701h19.263v19.263H70.633
	V148.701z"/>
<path d="M51.369,262.046c0,6.989,5.685,12.673,12.673,12.673h43.934c6.989,0,12.673-5.685,12.673-12.673v-16.861
	c0-6.989-5.685-12.673-12.673-12.673H64.043c-6.989,0-12.673,5.685-12.673,12.673V262.046z M66.577,247.72h38.864v11.791H66.577
	V247.72z"/>
<path d="M470.939,76.378H226.598c-4.2,0-7.604,3.405-7.604,7.604s3.404,7.604,7.604,7.604h244.341
	c14.256,0,25.853,11.598,25.853,25.853V374.96c0,14.256-11.598,25.853-25.853,25.853h-60.238l-18.487-55.459
	c-2.419-7.256-9.185-12.132-16.833-12.132H133.746c-7.651,0-14.415,4.877-16.832,12.132l-18.487,55.459H41.061
	c-14.256,0-25.853-11.598-25.853-25.853V117.439c0-14.256,11.598-25.853,25.853-25.853h78.067c4.2,0,7.604-3.405,7.604-7.604
	s-3.404-7.604-7.604-7.604H41.061C18.42,76.378,0,94.798,0,117.439V374.96c0,22.642,18.42,41.061,41.061,41.061h52.744
	c-0.448,4.294,0.673,8.67,3.242,12.233c3.326,4.613,8.707,7.368,14.393,7.368h165.851c4.2,0,7.604-3.405,7.604-7.604
	c0-4.199-3.404-7.604-7.604-7.604h-165.85c-0.812,0-1.582-0.394-2.056-1.053c-0.474-0.658-0.605-1.512-0.348-2.283l22.305-66.916
	c0.346-1.036,1.312-1.732,2.404-1.732h241.637c1.093,0,2.059,0.697,2.405,1.733l22.305,66.914c0.257,0.772,0.127,1.626-0.349,2.284
	c-0.475,0.659-1.245,1.053-2.056,1.053h-77.814c-4.2,0-7.604,3.405-7.604,7.604c0,4.199,3.404,7.604,7.604,7.604h77.814
	c5.686,0,11.066-2.754,14.393-7.368c2.568-3.563,3.69-7.939,3.242-12.233h55.616c22.642,0,41.061-18.42,41.061-41.061V117.439
	C512,94.799,493.58,76.378,470.939,76.378z"/>
<path d="M153.6,91.586h37.513c4.2,0,7.604-3.405,7.604-7.604s-3.404-7.604-7.604-7.604H153.6c-4.2,0-7.604,3.405-7.604,7.604
	S149.4,91.586,153.6,91.586z"/>
<g>
</g>
<g>
</g>
<g>
</g>
<g>
</g>
<g>
</g>
<g>
</g>
<g>
</g>
<g>
</g>
<g>
</g>
<g>
</g>
<g>
</g>
<g>
</g>
<g>
</g>
<g>
</g>
<g>
</g>
</svg>
