<svg xmlns="http://www.w3.org/2000/svg" viewBox="0 0 64 64"><defs><style>.cls-1{fill:#8ed8f8;}.cls-2{fill:#ade1fa;}.cls-3{fill:#afb4c8;}.cls-4{fill:#43c7b5;}.cls-5{fill:#5ce0bf;}.cls-6{fill:#e1e4ed;}.cls-7{fill:#393045;}</style></defs><title>24-tools</title><g id="_24-tools" data-name="24-tools"><path class="cls-1" d="M60.33,7.93l-7.46,7.46a2.994,2.994,0,0,1-4.26,0l-40.2,40.2a2,2,0,1,1-2.828,2.828L2.77,61.23a6.023,6.023,0,0,0,8.53,0L44.53,28l1.83-1.83,12.91-2.25L63,10.59Z"/><path class="cls-2" d="M5,57a2,2,0,0,1,3.414-1.414l40.2-40.2a3.006,3.006,0,0,1,0-4.26l7.46-7.46L53.41,1,40.08,4.73,37.83,17.64,23.47,32l-.23.24L2.77,52.7a6.023,6.023,0,0,0,0,8.53l2.816-2.816A1.994,1.994,0,0,1,5,57Z"/><polygon class="cls-3" points="13.82 6.5 15.66 11.99 11.99 15.66 6.5 13.82 1 6.5 6.5 1 13.82 6.5"/><polygon class="cls-3" points="15.66 11.99 34.89 31.23 31.23 34.89 11.99 15.66 15.66 11.99"/><path class="cls-3" d="M62.27,53.31c1,2.71.91,4.59.1,5.4l-3.66,3.66c-.81.81-2.69.9-5.4-.1Z"/><path class="cls-3" d="M44.92,34.03,34.03,44.92c-.74-1.3-1.34-2.53-1.89-3.62l9.16-9.16C42.39,32.69,43.62,33.29,44.92,34.03Z"/><path class="cls-4" d="M41.3,28.48a2.571,2.571,0,0,1,0,3.66L32.14,41.3a2.583,2.583,0,0,1-3.66,0,2.589,2.589,0,0,1,0-3.66l2.75-2.75,3.66-3.66,2.75-2.75a2.583,2.583,0,0,1,3.66,0Z"/><path class="cls-5" d="M62.27,53.31l-8.96,8.96c-3.44-1.29-8.21-4.34-13.84-9.97a32.649,32.649,0,0,1-5.44-7.38L44.92,34.03a32.649,32.649,0,0,1,7.38,5.44C57.93,45.1,60.98,49.87,62.27,53.31Z"/><polygon class="cls-6" points="3.75 3.75 1 6.5 6.5 13.82 11.99 15.66 13.825 13.825 3.75 3.75"/><rect class="cls-6" x="21.23" y="10.758" width="2.592" height="27.202" transform="translate(-10.626 23.063) rotate(-45)"/><path class="cls-6" d="M57.79,57.79l-4.48,4.48c2.71,1,4.59.91,5.4.1l1.83-1.83Z"/><path class="cls-6" d="M36.72,36.72,32.14,41.3c.55,1.09,1.15,2.32,1.89,3.62l5.445-5.445Z"/><path class="cls-5" d="M33.06,33.06l-1.83,1.83-2.75,2.75a2.589,2.589,0,0,0,0,3.66,2.583,2.583,0,0,0,3.66,0l4.58-4.58Z"/><path class="cls-4" d="M39.475,39.475,34.03,44.92a32.649,32.649,0,0,0,5.44,7.38c5.63,5.63,10.4,8.68,13.84,9.97l4.48-4.48Z"/><path class="cls-7" d="M10.593,60.523A5,5,0,0,1,7.031,62h0a5.032,5.032,0,0,1-3.549-8.593l20.7-20.7-1.414-1.414-20.7,20.7A7.035,7.035,0,0,0,7.024,64h.007a6.991,6.991,0,0,0,4.976-2.062l16.7-16.7-1.414-1.414Z"/><path class="cls-7" d="M38.537,18.347a.994.994,0,0,0,.278-.535L40.957,5.523l12.158-3.4,1.542,1.548L47.9,10.423a4.005,4.005,0,0,0,0,5.673,4.09,4.09,0,0,0,5.675,0l6.754-6.754,1.548,1.542-3.4,12.158L46.188,25.185a.994.994,0,0,0-.535.278l-1.83,1.83,1.414,1.414L46.844,27.1l12.6-2.2a1,1,0,0,0,.791-.716l3.731-13.33a1,1,0,0,0-.257-.977l-2.67-2.66a1,1,0,0,0-1.413,0l-7.461,7.461a2.041,2.041,0,0,1-2.845,0,2.006,2.006,0,0,1,0-2.846l7.46-7.46a1,1,0,0,0,0-1.413L54.118.294a.994.994,0,0,0-.977-.257L39.811,3.768a1,1,0,0,0-.716.791l-2.2,12.6-5.136,5.137,1.414,1.414Z"/><path class="cls-7" d="M23.293,39.293,8.286,54.3A2.963,2.963,0,0,0,7,54a3.025,3.025,0,1,0,2.7,1.713L24.707,40.707ZM7,58a1,1,0,0,1,0-2,.977.977,0,0,1,.713.307A.959.959,0,0,1,8,57,1,1,0,0,1,7,58Z"/><rect class="cls-7" x="38.335" y="22.395" width="4.54" height="2" transform="translate(-4.65 35.564) rotate(-45)"/><path class="cls-7" d="M53.006,38.761a33.224,33.224,0,0,0-7.591-5.6c-.94-.535-1.833-.99-2.66-1.407a3.553,3.553,0,0,0-.748-3.981,3.707,3.707,0,0,0-5.074,0L34.89,29.816,16.534,11.45,14.769,6.183a1,1,0,0,0-.348-.483L7.1.2A1,1,0,0,0,5.793.293l-5.5,5.5A1,1,0,0,0,.2,7.1l5.5,7.32a1,1,0,0,0,.483.348l5.267,1.765L29.816,34.89l-2.043,2.043A3.59,3.59,0,0,0,30.31,43.06a3.6,3.6,0,0,0,1.442-.309c.417.828.873,1.721,1.4,2.653a33.224,33.224,0,0,0,5.608,7.6c6.449,6.449,11.279,9.106,14.2,10.2A11.2,11.2,0,0,0,56.735,64a3.665,3.665,0,0,0,2.682-.923l3.66-3.66c1.184-1.184,1.23-3.476.129-6.458C62.113,50.042,59.456,45.212,53.006,38.761Zm-18.735,4.5c-.327-.618-.635-1.218-.913-1.771L41.5,33.358c.552.277,1.152.585,1.77.913ZM2.321,6.594,6.594,2.321l6.377,4.791,1.544,4.609-2.794,2.794L7.112,12.971ZM15.66,13.4,33.476,31.23,31.23,33.476,13.4,15.66ZM29.187,40.593a1.591,1.591,0,0,1,0-2.246l2.75-2.75,3.66-3.659,2.75-2.75a1.636,1.636,0,0,1,2.25,0,1.572,1.572,0,0,1,0,2.242L31.426,40.6A1.627,1.627,0,0,1,29.187,40.593Zm6.1,4.485,9.792-9.792a30.826,30.826,0,0,1,6.515,4.891c6,6,8.492,10.477,9.5,12.892L53.068,61.1c-2.419-1.014-6.892-3.5-12.889-9.5A30.847,30.847,0,0,1,35.286,45.078ZM61.663,58,58,61.663c-.271.271-1.143.516-2.8.133l6.6-6.6C62.178,56.859,61.933,57.732,61.663,58Z"/><rect class="cls-7" x="41.841" y="42.135" width="2.588" height="2" transform="translate(-17.867 43.135) rotate(-45)"/><rect class="cls-7" x="45.499" y="45.8" width="2.602" height="2" transform="translate(-19.385 46.8) rotate(-45)"/><rect class="cls-7" x="49.171" y="49.465" width="2.588" height="2" transform="translate(-20.903 50.465) rotate(-45)"/><rect class="cls-7" x="52.831" y="53.125" width="2.588" height="2" transform="translate(-22.419 54.125) rotate(-45)"/></g></svg>